:SAMPLES-PER-SECOND 30
:FRAME-RANGE 1-1700
:FULLY-SPECIFIED
:DEGREES
1435
root  42.7011 40.0521 -65.4818 170.796 2.83153 165.123
RightUpLeg  -13.2952 -8.84296 -10.9024
RightLeg  39.1241 -17.7014 -15.091
RightFoot  -18.1996 -0.181995 -0.982939
RightToes  6.35937e-011 1.2921e-014 -6.02303e-014
Spine  21.5155 3.29655 5.72548
Spine1  -3.90795 4.3005 -6.17815
HEad  -8.96979 6.50455 -13.8063
LeftShoulder1  2.40416 -8.35727 -13.9263
LeftArm  28.6629 -41.5389 -96.6588
LeftForeArm  83.1675 4.66805 -14.5318
LeftHand  -0.207229 15.3284 -1.37897
RightShoulder  3.64633 10.5664 20.01
RightArm  -15.677 29.7888 68.4378
RightForeArm  82.6947 -4.90437 4.28102
RightHand  0.27756 -6.92497 -21.6317
LeftUpLeg  -95.6415 6.81139 -48.2966
LeftLeg  103.954 -1.15114 3.02273
LeftFoot  -30.466 -0.789692 -5.77324
LeftToes  -1.9349e-011 5.45182e-011 1.33515e-010
1436
root  43.0287 38.9203 -65.7189 169.859 7.48179 166.263
RightUpLeg  -11.9889 -2.39961 -11.2662
RightLeg  34.7593 -13.6891 -10.2557
RightFoot  -16.2263 0.238503 8.16302
RightToes  6.35937e-011 1.2921e-014 -6.02303e-014
Spine  20.9551 3.6495 6.7748
Spine1  -3.86314 4.41156 -4.15765
HEad  -4.77927 8.76241 -13.5386
LeftShoulder1  2.23786 -7.83074 -13.3557
LeftArm  28.9258 -41.3977 -96.9056
LeftForeArm  82.8647 4.6058 -14.5971
LeftHand  -0.249253 15.0719 -1.91593
RightShoulder  3.51351 10.1527 19.8167
RightArm  -15.2986 28.8907 69.659
RightForeArm  83.6536 -4.89713 4.49277
RightHand  0.349353 -7.36428 -21.0886
LeftUpLeg  -96.7227 8.02644 -45.3385
LeftLeg  107.442 -1.13212 2.37439
LeftFoot  -31.6128 -0.744705 -5.22905
LeftToes  -1.9349e-011 5.45182e-011 1.33515e-010
1437
root  43.547 37.2988 -65.7476 168.445 12.1895 167.633
RightUpLeg  -16.866 1.93309 -7.31726
RightLeg  46.5496 -10.4308 -11.8784
RightFoot  -23.0204 0.499093 6.40236
RightToes  6.35937e-011 1.2921e-014 -6.02303e-014
Spine  22.198 3.63893 5.56681
Spine1  -3.97834 4.07685 -1.97932
HEad  -4.16144 9.73774 -12.2755
LeftShoulder1  2.07124 -7.06549 -13.2197
LeftArm  24.1782 -41.39 -96.1432
LeftForeArm  85.889 5.20058 -13.8565
LeftHand  -0.301696 14.828 -2.6008
RightShoulder  3.59697 9.81225 21.227
RightArm  -17.017 29.5302 70.9703
RightForeArm  86.7419 -4.45999 2.69091
RightHand  0.451193 -7.87963 -21.4293
LeftUpLeg  -97.7206 9.59834 -43.6591
LeftLeg  110.434 -3.37007 7.38954
LeftFoot  -30.4382 -0.249102 -2.57074
LeftToes  -1.9349e-011 5.45182e-011 1.33515e-010
1438
root  44.0931 36.3852 -65.657 166.508 14.09 169.78
RightUpLeg  -17.0392 4.09755 -3.25819
RightLeg  51.5056 -9.1889 -12.5176
RightFoot  -25.38 0.502895 5.48069
RightToes  6.35937e-011 1.2921e-014 -6.02303e-014
Spine  23.6742 2.29296 3.82423
Spine1  -2.72778 2.05287 0.789463
HEad  -7.06311 9.05092 -10.9873
LeftShoulder1  2.06481 -8.07598 -11.1933
LeftArm  30.4248 -41.7182 -96.0286
LeftForeArm  79.2233 4.30659 -14.9788
LeftHand  -0.215577 14.5132 -1.65986
RightShoulder  3.65654 9.77083 21.8069
RightArm  -16.7061 29.6875 70.83
RightForeArm  86.8258 -4.49233 2.90684
RightHand  0.465515 -7.90449 -21.837
LeftUpLeg  -93.381 9.98972 -43.6169
LeftLeg  109.92 -6.21823 14.3813
LeftFoot  -30.2996 0.036587 -0.874229
LeftToes  -1.9349e-011 5.45182e-011 1.33515e-010
1439
root  44.6143 35.6232 -65.7574 166.373 15.8978 169.768
RightUpLeg  -19.0078 5.12776 -1.70377
RightLeg  55.993 -8.09549 -13.0869
RightFoot  -27.974 0.494203 4.67948
RightToes  6.35937e-011 1.2921e-014 -6.02303e-014
Spine  23.3161 2.20098 1.79566
Spine1  -2.68037 1.48273 0.944918
HEad  -8.96155 5.96996 -9.46462
LeftShoulder1  2.25761 -8.28083 -12.6814
LeftArm  27.765 -41.2359 -96.4536
LeftForeArm  84.1345 4.6472 -14.5036
LeftHand  -0.291287 14.5616 -2.56788
RightShoulder  3.36447 8.69507 21.8808
RightArm  -13.9054 28.4478 68.9215
RightForeArm  83.9808 -5.07354 5.65557
RightHand  0.42452 -7.69819 -21.7449
LeftUpLeg  -91.0869 7.66497 -46.7753
LeftLeg  110.178 -6.05471 13.8262
LeftFoot  -29.621 -0.170931 -2.17086
LeftToes  -1.9349e-011 5.45182e-011 1.33515e-010
1440
root  45.0375 35.4594 -65.7828 166.037 21.5584 170.096
RightUpLeg  -19.2298 7.00127 0.605944
RightLeg  56.0938 -6.44139 -10.6189
RightFoot  -28.2996 0.144246 2.25661
RightToes  6.35937e-011 1.2921e-014 -6.02303e-014
Spine  23.3565 2.19148 2.69099
Spine1  -2.47328 2.19703 -2.26139
HEad  -12.4371 4.53904 -9.67042
LeftShoulder1  2.23146 -8.49222 -12.0494
LeftArm  33.3642 -41.3953 -98.1744
LeftForeArm  82.0733 3.78443 -15.1946
LeftHand  -0.271113 15.1529 -2.14442
RightShoulder  3.28236 8.73401 21.0545
RightArm  -15.166 27.993 69.817
RightForeArm  84.1122 -4.91032 4.69583
RightHand  0.442375 -7.76752 -21.9581
LeftUpLeg  -90.8809 7.24087 -47.4405
LeftLeg  110.064 -3.5641 7.99783
LeftFoot  -29.6762 -0.353729 -3.29845
LeftToes  -1.9349e-011 5.45182e-011 1.33515e-010
1441
root  45.4926 35.9922 -65.8137 165.453 27.3612 169.58
RightUpLeg  -17.3847 6.03613 1.42695
RightLeg  52.0701 -3.67237 -5.42323
RightFoot  -26.6262 -0.413656 -1.73735
RightToes  6.35937e-011 1.2921e-014 -6.02303e-014
Spine  22.7924 2.43414 0.883671
Spine1  -2.64523 2.07217 -2.38013
HEad  -15.4458 4.25409 -12.8949
LeftShoulder1  2.22942 -8.4919 -12.0308
LeftArm  35.7587 -41.3836 -98.4224
LeftForeArm  80.3199 3.3098 -15.5124
LeftHand  -0.305488 15.7224 -2.36244
RightShoulder  3.34545 8.77916 21.5047
RightArm  -17.1107 28.2422 70.5081
RightForeArm  85.2361 -4.59346 3.08594
RightHand  0.535285 -8.18763 -22.4516
LeftUpLeg  -90.5916 6.90238 -48.0489
LeftLeg  108.645 -2.21554 5.07895
LeftFoot  -30.068 -0.513147 -4.2088
LeftToes  -1.9349e-011 5.45182e-011 1.33515e-010
